<?xml version="1.0" encoding="UTF-8" standalone="no"?>
<!-- Created with Inkscape (http://www.inkscape.org/) -->

<svg
   xmlns:svg="http://www.w3.org/2000/svg"
   xmlns="http://www.w3.org/2000/svg"
   xmlns:inkscape="http://www.inkscape.org/namespaces/inkscape"
   width="128"
   height="128"
   id="svg2"
   version="1.1"
   inkscape:version="0.48.1 ">


  <g
     inkscape:label="Layer 1"
     inkscape:groupmode="layer"
     id="layer1"
     transform="translate(-0.65625,-924.53125)">
    <rect
       style="fill:#0094ec;fill-opacity:1;stroke:none;stroke-width:0.97965294000000003;stroke-linecap:butt;stroke-linejoin:miter;stroke-miterlimit:4;stroke-opacity:1;stroke-dasharray:3.91861170000000000, 3.91861170000000000;stroke-dashoffset:0"
       id="rect3753"
       width="127.02035"
       height="127.02035"
       x="1.13407"
       y="925.01691" />
    <rect
       style="fill:#0094ec;fill-opacity:1;stroke:#ffffff;stroke-width:11.81240559;stroke-linecap:butt;stroke-linejoin:round;stroke-miterlimit:4;stroke-opacity:1;stroke-dasharray:none;stroke-dashoffset:0"
       id="rect3770"
       width="92.187592"
       height="92.187592"
       x="17.906204"
       y="942.26837" />
    <g
       style="fill:#ffffff;fill-opacity:1;stroke:none;"
       id="text_shape">
      <path
         d="m 46.414227,1004.283 c 1.311521,0 3.255366,0.048 5.831543,0.1435 2.576162,0.096 4.520008,0.1436 5.831542,0.1436 0.799792,0 1.295885,-0.4322 1.488282,-1.2964 0.03221,-0.7998 0.08006,-1.5835 0.143554,-2.3511 0.127916,-1.53612 0.19188,-2.62401 0.191895,-3.26366 0.384751,-0.44824 1.009018,-1.1123 1.872803,-1.99219 0.863752,-0.87987 1.583722,-1.31982 2.159912,-1.31983 0.511699,1e-5 0.86375,0.11183 1.056152,0.33545 0.927714,1.05568 1.967752,2.51173 3.120117,4.36817 0.639625,1.02346 1.263648,2.06346 1.872071,3.12016 1.087864,1.5996 1.919895,2.3994 2.496093,2.3994 l 7.535157,0 c 2.688439,0 5.088339,-0.096 7.199707,-0.2871 l 0,-0.9126 c -0.735393,-1.2159 -1.935099,-3.1197 -3.599121,-5.71146 l -6.912598,-10.17627 -0.911133,-1.82373 c 0.127899,-0.48045 1.167937,-1.58446 3.120117,-3.31202 0.671841,-0.60837 1.935512,-1.69675 3.791016,-3.26513 -3.7e-5,2e-5 1.103965,-1.10398 3.312012,-3.31201 l 0,-0.28711 c -0.09574,-0.16013 -0.20756,-0.27243 -0.33545,-0.33692 l -16.464843,0 c -1.055687,0.99222 -2.63967,2.49661 -4.751953,4.51319 -2.65529,2.52736 -4.175308,3.82326 -4.560059,3.88769 l -0.191895,-0.0967 -0.09521,-0.19189 c -0.192397,-2.94334 -0.288589,-5.79148 -0.288575,-8.54444 -1.4e-5,-4.15914 -0.11183,-7.0068 -0.335449,-8.54297 -0.06447,-0.48042 -0.976575,-0.72066 -2.736328,-0.7207 -2.591805,4e-5 -5.679693,0.14408 -9.263672,0.43213 -0.38379,0.0323 -0.687989,0.22416 -0.912598,0.57568 0,3.96879 -0.04785,9.95316 -0.143554,17.95313 l -0.143555,18.04691 c 0,1.0566 0.208007,1.665 0.624024,1.8252 z"
         style=""
         id="path_k" />
    </g>
  </g>
</svg>
